<svg 
 xmlns="http://www.w3.org/2000/svg"
 xmlns:xlink="http://www.w3.org/1999/xlink"
 width="350px" height="213px">
<path fill-rule="evenodd"  fill="rgb(0, 0, 0)"
 d="M346.329,140.788 C346.329,140.788 324.431,161.785 306.034,155.543 C306.034,155.543 346.518,79.027 289.575,38.642 C289.575,38.642 316.675,38.736 337.816,49.991 C337.816,49.991 358.105,72.312 346.329,140.788 ZM250.982,33.535 C249.422,48.573 262.191,123.764 283.332,155.543 C304.473,187.322 333.843,168.027 333.843,168.027 C316.391,200.941 286.170,208.318 286.170,208.318 C228.139,229.599 184.013,157.245 184.013,157.245 C189.121,151.287 201.039,125.466 201.039,125.466 C235.091,185.903 265.171,181.079 265.171,181.079 C229.700,144.477 222.606,57.369 222.606,57.369 C197.918,82.338 175.500,142.491 175.500,142.491 C175.500,142.491 146.272,198.387 105.125,210.588 C63.979,222.789 25.954,185.335 16.590,168.595 C16.590,168.595 40.710,181.363 56.885,167.460 C73.060,153.556 101.153,87.729 100.585,32.967 C100.585,32.967 80.154,17.078 27.940,28.995 C27.940,28.995 48.372,-0.798 89.234,1.188 C130.097,3.174 150.528,37.223 166.987,56.234 C166.987,56.234 149.393,85.175 149.393,88.013 C149.393,88.013 136.624,64.462 127.827,56.234 C127.827,56.234 128.678,125.466 86.964,181.079 C86.964,181.079 113.355,181.079 136.340,145.896 C136.340,145.896 155.352,115.252 159.609,103.902 C163.865,92.552 172.095,76.379 175.500,70.988 C181.601,58.504 216.221,6.295 255.523,0.621 C294.825,-5.054 323.627,29.562 323.627,29.562 C281.771,15.659 250.982,33.535 250.982,33.535 ZM44.966,155.543 C26.569,161.785 4.671,140.788 4.671,140.788 C-7.105,72.312 13.184,49.991 13.184,49.991 C34.325,38.736 61.425,38.642 61.425,38.642 C4.482,79.027 44.966,155.543 44.966,155.543 Z"/>
</svg>